<?xml version="1.0" standalone="no"?>
<!DOCTYPE svg PUBLIC "-//W3C//DTD SVG 20010904//EN"
 "http://www.w3.org/TR/2001/REC-SVG-20010904/DTD/svg10.dtd">
<svg version="1.0" xmlns="http://www.w3.org/2000/svg"
 width="310.000000pt" height="310.000000pt" viewBox="0 0 310.000000 310.000000"
 preserveAspectRatio="xMidYMid meet">
<metadata>
Created by potrace 1.14, written by Peter Selinger 2001-2017
</metadata>
<g transform="translate(0.000000,310.000000) scale(0.100000,-0.100000)"
fill="#000000" stroke="none">
<path d="M388 2375 c-65 -14 -142 -41 -175 -63 -19 -12 -23 -23 -23 -68 0 -36
5 -56 13 -60 8 -3 56 9 107 27 169 56 319 38 363 -43 20 -38 33 -115 29 -174
l-3 -40 -62 13 c-130 28 -252 22 -342 -17 -60 -26 -129 -98 -149 -157 -33 -96
-14 -214 45 -286 105 -128 363 -119 488 17 31 34 38 33 55 -6 7 -18 27 -46 44
-61 l30 -29 38 20 c22 11 49 30 61 41 22 21 22 23 7 59 -36 79 -41 127 -43
347 -1 121 -6 240 -12 263 -25 113 -91 183 -199 212 -62 17 -203 20 -272 5z
m293 -533 c25 -10 27 -14 23 -64 -5 -68 -28 -129 -59 -156 -73 -63 -199 -89
-266 -53 -43 22 -69 72 -69 131 0 63 28 110 81 137 39 20 56 22 154 19 61 -2
122 -8 136 -14z"/>
<path d="M2543 2380 c-91 -19 -176 -80 -216 -155 -29 -56 -28 -153 3 -218 39
-82 99 -119 290 -181 63 -20 124 -45 136 -54 69 -57 55 -150 -29 -194 -66 -34
-205 -32 -319 6 -47 16 -93 26 -102 23 -24 -10 -22 -91 4 -117 64 -64 287 -99
414 -65 163 43 252 147 245 288 -3 59 -13 88 -47 135 -36 50 -85 77 -212 118
-155 50 -203 75 -223 116 -20 42 -9 100 23 128 61 53 261 47 371 -11 10 -5 20
-4 27 3 17 17 15 90 -3 115 -34 48 -254 86 -362 63z"/>
<path d="M990 2358 c-11 -4 -20 -13 -20 -20 0 -25 259 -869 271 -884 9 -11 31
-14 93 -12 l81 3 17 50 c9 28 18 64 21 80 3 17 10 50 17 75 7 25 14 53 16 63
1 10 17 74 33 143 17 69 33 137 36 152 3 15 11 50 19 79 8 28 12 54 10 57 -2
4 0 3 5 -1 5 -5 43 -154 85 -332 43 -178 81 -334 86 -346 7 -20 17 -24 64 -27
54 -3 111 4 123 15 3 3 20 54 38 114 18 59 56 182 85 273 164 529 156 498 143
511 -10 10 -48 13 -125 10 -17 -1 -32 -9 -39 -23 -9 -17 -108 -385 -134 -498
-11 -50 -47 -187 -51 -200 -6 -15 -14 12 -52 175 -32 136 -68 287 -97 412 -15
61 -32 116 -39 122 -15 12 -122 17 -153 7 -19 -6 -29 -26 -39 -76 -2 -8 -22
-94 -45 -190 -63 -268 -90 -382 -96 -417 -6 -32 -19 -45 -21 -20 0 6 -17 75
-37 152 -20 77 -38 149 -40 160 -22 106 -97 371 -108 382 -15 16 -114 23 -147
11z"/>
<path d="M2878 1226 c-1 -2 -35 -6 -74 -9 -86 -8 -202 -46 -250 -82 -42 -32
-39 -51 7 -48 314 16 373 11 389 -31 15 -41 -6 -138 -63 -290 -31 -85 -37
-110 -27 -116 41 -25 157 133 204 276 24 73 27 91 31 169 5 96 -9 109 -127
120 -35 4 -68 8 -75 10 -6 2 -13 2 -15 1z"/>
<path d="M3 1144 c-9 -24 83 -107 242 -220 201 -142 471 -268 710 -329 147
-38 219 -51 400 -70 66 -7 307 -7 368 0 26 3 68 7 94 10 312 33 677 162 921
324 75 50 96 74 87 100 -11 37 -45 34 -180 -17 -179 -68 -424 -135 -570 -156
-22 -3 -51 -8 -65 -11 -95 -18 -262 -29 -445 -29 -147 1 -207 4 -345 19 -359
39 -798 179 -1103 350 -86 49 -104 53 -114 29z"/>
</g>
</svg>
